<mxfile host="Electron" agent="Mozilla/5.0 (Windows NT 10.0; Win64; x64) AppleWebKit/537.36 (KHTML, like Gecko) draw.io/28.0.6 Chrome/138.0.7204.100 Electron/37.2.3 Safari/537.36" version="28.0.6">
  <diagram id="D4XyRpBagqAaDI2bELAT" name="Page-1">
    <mxGraphModel dx="1281" dy="1426" grid="1" gridSize="10" guides="1" tooltips="1" connect="1" arrows="1" fold="1" page="1" pageScale="1" pageWidth="1200" pageHeight="800" math="0" shadow="0">
      <root>
        <mxCell id="0" />
        <mxCell id="1" parent="0" />
        <mxCell id="d4S_kpJogPWV_qHsP6mP-286" value="" style="group" parent="1" vertex="1" connectable="0">
          <mxGeometry x="280" y="-720" width="1010" height="670" as="geometry" />
        </mxCell>
        <mxCell id="d4S_kpJogPWV_qHsP6mP-100" value="Engine&lt;div&gt;9&lt;/div&gt;" style="ellipse;whiteSpace=wrap;html=1;aspect=fixed;strokeWidth=2;" parent="d4S_kpJogPWV_qHsP6mP-286" vertex="1">
          <mxGeometry x="760" y="330" width="60" height="60" as="geometry" />
        </mxCell>
        <mxCell id="d4S_kpJogPWV_qHsP6mP-227" style="edgeStyle=orthogonalEdgeStyle;rounded=0;orthogonalLoop=1;jettySize=auto;html=1;exitX=0.75;exitY=1;exitDx=0;exitDy=0;endArrow=none;endFill=0;fillColor=#f8cecc;strokeColor=#b85450;strokeWidth=2;entryX=1.011;entryY=0.774;entryDx=0;entryDy=0;entryPerimeter=0;" parent="d4S_kpJogPWV_qHsP6mP-286" source="d4S_kpJogPWV_qHsP6mP-102" target="w3lkT9xzynE0XjIDihke-5" edge="1">
          <mxGeometry as="geometry">
            <mxPoint x="580" y="360" as="targetPoint" />
            <Array as="points">
              <mxPoint x="580" y="213" />
              <mxPoint x="580" y="360" />
              <mxPoint x="760" y="360" />
            </Array>
          </mxGeometry>
        </mxCell>
        <mxCell id="d4S_kpJogPWV_qHsP6mP-102" value="23" style="rounded=0;whiteSpace=wrap;html=1;rotation=90;strokeWidth=2;" parent="d4S_kpJogPWV_qHsP6mP-286" vertex="1">
          <mxGeometry x="540" y="110" width="190" height="60" as="geometry" />
        </mxCell>
        <mxCell id="d4S_kpJogPWV_qHsP6mP-229" style="edgeStyle=orthogonalEdgeStyle;rounded=0;orthogonalLoop=1;jettySize=auto;html=1;exitX=0.75;exitY=1;exitDx=0;exitDy=0;entryX=0;entryY=0.5;entryDx=0;entryDy=0;endArrow=none;endFill=0;fillColor=#f8cecc;strokeColor=#b85450;strokeWidth=2;" parent="d4S_kpJogPWV_qHsP6mP-286" source="d4S_kpJogPWV_qHsP6mP-103" target="d4S_kpJogPWV_qHsP6mP-100" edge="1">
          <mxGeometry as="geometry">
            <Array as="points">
              <mxPoint x="730" y="213" />
              <mxPoint x="730" y="360" />
            </Array>
          </mxGeometry>
        </mxCell>
        <mxCell id="d4S_kpJogPWV_qHsP6mP-258" style="edgeStyle=orthogonalEdgeStyle;rounded=0;orthogonalLoop=1;jettySize=auto;html=1;exitX=1;exitY=0.5;exitDx=0;exitDy=0;entryX=0.5;entryY=0;entryDx=0;entryDy=0;endArrow=none;endFill=0;strokeWidth=2;" parent="d4S_kpJogPWV_qHsP6mP-286" source="d4S_kpJogPWV_qHsP6mP-103" target="d4S_kpJogPWV_qHsP6mP-100" edge="1">
          <mxGeometry as="geometry" />
        </mxCell>
        <mxCell id="d4S_kpJogPWV_qHsP6mP-103" value="14" style="rounded=0;whiteSpace=wrap;html=1;rotation=90;strokeWidth=2;" parent="d4S_kpJogPWV_qHsP6mP-286" vertex="1">
          <mxGeometry x="695" y="110" width="190" height="60" as="geometry" />
        </mxCell>
        <mxCell id="d4S_kpJogPWV_qHsP6mP-257" style="edgeStyle=orthogonalEdgeStyle;rounded=0;orthogonalLoop=1;jettySize=auto;html=1;exitX=1;exitY=0.5;exitDx=0;exitDy=0;entryX=1;entryY=0.5;entryDx=0;entryDy=0;endArrow=none;endFill=0;strokeWidth=2;" parent="d4S_kpJogPWV_qHsP6mP-286" source="d4S_kpJogPWV_qHsP6mP-102" target="d4S_kpJogPWV_qHsP6mP-103" edge="1">
          <mxGeometry as="geometry" />
        </mxCell>
        <mxCell id="d4S_kpJogPWV_qHsP6mP-225" style="edgeStyle=orthogonalEdgeStyle;rounded=0;orthogonalLoop=1;jettySize=auto;html=1;exitX=0;exitY=0.5;exitDx=0;exitDy=0;entryX=0.25;entryY=0;entryDx=0;entryDy=0;endArrow=none;endFill=0;strokeWidth=2;fillColor=#dae8fc;strokeColor=#6c8ebf;" parent="d4S_kpJogPWV_qHsP6mP-286" source="d4S_kpJogPWV_qHsP6mP-104" target="d4S_kpJogPWV_qHsP6mP-102" edge="1">
          <mxGeometry as="geometry">
            <Array as="points">
              <mxPoint x="500" y="10" />
              <mxPoint x="680" y="10" />
              <mxPoint x="680" y="118" />
            </Array>
          </mxGeometry>
        </mxCell>
        <mxCell id="d4S_kpJogPWV_qHsP6mP-235" style="edgeStyle=orthogonalEdgeStyle;rounded=0;orthogonalLoop=1;jettySize=auto;html=1;exitX=1;exitY=0.5;exitDx=0;exitDy=0;endArrow=none;endFill=0;strokeWidth=2;fillColor=#dae8fc;strokeColor=#6c8ebf;entryX=-0.1;entryY=0.66;entryDx=0;entryDy=0;entryPerimeter=0;" parent="d4S_kpJogPWV_qHsP6mP-286" source="d4S_kpJogPWV_qHsP6mP-104" target="d4S_kpJogPWV_qHsP6mP-237" edge="1">
          <mxGeometry as="geometry">
            <Array as="points">
              <mxPoint x="500" y="160" />
              <mxPoint x="900" y="160" />
              <mxPoint x="900" y="163" />
            </Array>
            <mxPoint x="900" y="140" as="targetPoint" />
          </mxGeometry>
        </mxCell>
        <mxCell id="d4S_kpJogPWV_qHsP6mP-104" value="18 / 22" style="rounded=0;whiteSpace=wrap;html=1;rotation=90;strokeWidth=2;" parent="d4S_kpJogPWV_qHsP6mP-286" vertex="1">
          <mxGeometry x="470" y="90" width="60" height="30" as="geometry" />
        </mxCell>
        <mxCell id="d4S_kpJogPWV_qHsP6mP-196" style="edgeStyle=orthogonalEdgeStyle;rounded=0;orthogonalLoop=1;jettySize=auto;html=1;exitX=0;exitY=0.5;exitDx=0;exitDy=0;entryX=0;entryY=0.5;entryDx=0;entryDy=0;endArrow=none;endFill=0;strokeWidth=2;fillColor=#dae8fc;strokeColor=#6c8ebf;" parent="d4S_kpJogPWV_qHsP6mP-286" source="d4S_kpJogPWV_qHsP6mP-105" target="d4S_kpJogPWV_qHsP6mP-104" edge="1">
          <mxGeometry as="geometry">
            <Array as="points">
              <mxPoint x="370" y="10" />
              <mxPoint x="500" y="10" />
            </Array>
          </mxGeometry>
        </mxCell>
        <mxCell id="d4S_kpJogPWV_qHsP6mP-234" style="edgeStyle=orthogonalEdgeStyle;rounded=0;orthogonalLoop=1;jettySize=auto;html=1;exitX=1;exitY=0.5;exitDx=0;exitDy=0;entryX=1;entryY=0.5;entryDx=0;entryDy=0;endArrow=none;endFill=0;strokeWidth=2;fillColor=#dae8fc;strokeColor=#6c8ebf;" parent="d4S_kpJogPWV_qHsP6mP-286" source="d4S_kpJogPWV_qHsP6mP-105" target="d4S_kpJogPWV_qHsP6mP-104" edge="1">
          <mxGeometry as="geometry">
            <Array as="points">
              <mxPoint x="370" y="160" />
              <mxPoint x="500" y="160" />
            </Array>
          </mxGeometry>
        </mxCell>
        <mxCell id="d4S_kpJogPWV_qHsP6mP-105" value="17 / 21" style="rounded=0;whiteSpace=wrap;html=1;rotation=90;strokeWidth=2;" parent="d4S_kpJogPWV_qHsP6mP-286" vertex="1">
          <mxGeometry x="340" y="90" width="60" height="30" as="geometry" />
        </mxCell>
        <mxCell id="d4S_kpJogPWV_qHsP6mP-195" style="edgeStyle=orthogonalEdgeStyle;rounded=0;orthogonalLoop=1;jettySize=auto;html=1;exitX=0;exitY=0.5;exitDx=0;exitDy=0;entryX=0;entryY=0.5;entryDx=0;entryDy=0;endArrow=none;endFill=0;strokeWidth=2;fillColor=#dae8fc;strokeColor=#6c8ebf;" parent="d4S_kpJogPWV_qHsP6mP-286" source="d4S_kpJogPWV_qHsP6mP-106" target="d4S_kpJogPWV_qHsP6mP-105" edge="1">
          <mxGeometry as="geometry">
            <Array as="points">
              <mxPoint x="230" y="10" />
              <mxPoint x="370" y="10" />
            </Array>
          </mxGeometry>
        </mxCell>
        <mxCell id="d4S_kpJogPWV_qHsP6mP-233" style="edgeStyle=orthogonalEdgeStyle;rounded=0;orthogonalLoop=1;jettySize=auto;html=1;exitX=1;exitY=0.5;exitDx=0;exitDy=0;entryX=1;entryY=0.5;entryDx=0;entryDy=0;endArrow=none;endFill=0;strokeWidth=2;fillColor=#dae8fc;strokeColor=#6c8ebf;" parent="d4S_kpJogPWV_qHsP6mP-286" source="d4S_kpJogPWV_qHsP6mP-106" target="d4S_kpJogPWV_qHsP6mP-105" edge="1">
          <mxGeometry as="geometry">
            <Array as="points">
              <mxPoint x="230" y="160" />
              <mxPoint x="370" y="160" />
            </Array>
          </mxGeometry>
        </mxCell>
        <mxCell id="d4S_kpJogPWV_qHsP6mP-106" value="16 / 20" style="rounded=0;whiteSpace=wrap;html=1;rotation=90;strokeWidth=2;" parent="d4S_kpJogPWV_qHsP6mP-286" vertex="1">
          <mxGeometry x="200" y="90" width="60" height="30" as="geometry" />
        </mxCell>
        <mxCell id="d4S_kpJogPWV_qHsP6mP-194" style="edgeStyle=orthogonalEdgeStyle;rounded=0;orthogonalLoop=1;jettySize=auto;html=1;exitX=0;exitY=0.5;exitDx=0;exitDy=0;entryX=0;entryY=0.5;entryDx=0;entryDy=0;endArrow=none;endFill=0;strokeWidth=2;fillColor=#dae8fc;strokeColor=#6c8ebf;" parent="d4S_kpJogPWV_qHsP6mP-286" source="d4S_kpJogPWV_qHsP6mP-107" target="d4S_kpJogPWV_qHsP6mP-106" edge="1">
          <mxGeometry as="geometry">
            <Array as="points">
              <mxPoint x="100" y="10" />
              <mxPoint x="230" y="10" />
            </Array>
          </mxGeometry>
        </mxCell>
        <mxCell id="d4S_kpJogPWV_qHsP6mP-232" style="edgeStyle=orthogonalEdgeStyle;rounded=0;orthogonalLoop=1;jettySize=auto;html=1;exitX=1;exitY=0.5;exitDx=0;exitDy=0;entryX=1;entryY=0.5;entryDx=0;entryDy=0;endArrow=none;endFill=0;strokeWidth=2;fillColor=#dae8fc;strokeColor=#6c8ebf;" parent="d4S_kpJogPWV_qHsP6mP-286" source="d4S_kpJogPWV_qHsP6mP-107" target="d4S_kpJogPWV_qHsP6mP-106" edge="1">
          <mxGeometry as="geometry">
            <Array as="points">
              <mxPoint x="100" y="160" />
              <mxPoint x="230" y="160" />
            </Array>
          </mxGeometry>
        </mxCell>
        <mxCell id="d4S_kpJogPWV_qHsP6mP-107" value="15 / 19" style="rounded=0;whiteSpace=wrap;html=1;rotation=90;strokeWidth=2;" parent="d4S_kpJogPWV_qHsP6mP-286" vertex="1">
          <mxGeometry x="70" y="90" width="60" height="30" as="geometry" />
        </mxCell>
        <mxCell id="d4S_kpJogPWV_qHsP6mP-241" style="edgeStyle=orthogonalEdgeStyle;rounded=0;orthogonalLoop=1;jettySize=auto;html=1;exitX=0.5;exitY=1;exitDx=0;exitDy=0;entryX=0.25;entryY=0;entryDx=0;entryDy=0;endArrow=none;endFill=0;strokeWidth=2;fillColor=#dae8fc;strokeColor=#6c8ebf;" parent="d4S_kpJogPWV_qHsP6mP-286" source="d4S_kpJogPWV_qHsP6mP-108" target="d4S_kpJogPWV_qHsP6mP-103" edge="1">
          <mxGeometry as="geometry">
            <Array as="points">
              <mxPoint x="500" y="300" />
              <mxPoint x="840" y="300" />
              <mxPoint x="840" y="117" />
            </Array>
          </mxGeometry>
        </mxCell>
        <mxCell id="d4S_kpJogPWV_qHsP6mP-108" value="13" style="ellipse;whiteSpace=wrap;html=1;aspect=fixed;strokeWidth=2;" parent="d4S_kpJogPWV_qHsP6mP-286" vertex="1">
          <mxGeometry x="475" y="210" width="50" height="50" as="geometry" />
        </mxCell>
        <mxCell id="d4S_kpJogPWV_qHsP6mP-220" style="edgeStyle=orthogonalEdgeStyle;rounded=0;orthogonalLoop=1;jettySize=auto;html=1;exitX=0.5;exitY=1;exitDx=0;exitDy=0;entryX=0;entryY=0.5;entryDx=0;entryDy=0;endArrow=none;endFill=0;strokeWidth=2;fillColor=#f8cecc;strokeColor=#b85450;" parent="d4S_kpJogPWV_qHsP6mP-286" source="d4S_kpJogPWV_qHsP6mP-104" target="d4S_kpJogPWV_qHsP6mP-108" edge="1">
          <mxGeometry as="geometry">
            <Array as="points">
              <mxPoint x="440" y="105" />
              <mxPoint x="440" y="235" />
            </Array>
          </mxGeometry>
        </mxCell>
        <mxCell id="d4S_kpJogPWV_qHsP6mP-240" style="edgeStyle=orthogonalEdgeStyle;rounded=0;orthogonalLoop=1;jettySize=auto;html=1;exitX=0.5;exitY=1;exitDx=0;exitDy=0;entryX=0.5;entryY=1;entryDx=0;entryDy=0;endArrow=none;endFill=0;strokeWidth=2;fillColor=#dae8fc;strokeColor=#6c8ebf;" parent="d4S_kpJogPWV_qHsP6mP-286" source="d4S_kpJogPWV_qHsP6mP-109" target="d4S_kpJogPWV_qHsP6mP-108" edge="1">
          <mxGeometry as="geometry">
            <Array as="points">
              <mxPoint x="370" y="300" />
              <mxPoint x="500" y="300" />
            </Array>
          </mxGeometry>
        </mxCell>
        <mxCell id="d4S_kpJogPWV_qHsP6mP-109" value="12" style="ellipse;whiteSpace=wrap;html=1;aspect=fixed;strokeWidth=2;" parent="d4S_kpJogPWV_qHsP6mP-286" vertex="1">
          <mxGeometry x="345" y="210" width="50" height="50" as="geometry" />
        </mxCell>
        <mxCell id="d4S_kpJogPWV_qHsP6mP-215" style="edgeStyle=orthogonalEdgeStyle;rounded=0;orthogonalLoop=1;jettySize=auto;html=1;exitX=0.5;exitY=1;exitDx=0;exitDy=0;entryX=0;entryY=0.5;entryDx=0;entryDy=0;endArrow=none;endFill=0;strokeWidth=2;fillColor=#f8cecc;strokeColor=#b85450;" parent="d4S_kpJogPWV_qHsP6mP-286" source="d4S_kpJogPWV_qHsP6mP-105" target="d4S_kpJogPWV_qHsP6mP-109" edge="1">
          <mxGeometry as="geometry">
            <Array as="points">
              <mxPoint x="310" y="105" />
              <mxPoint x="310" y="235" />
            </Array>
          </mxGeometry>
        </mxCell>
        <mxCell id="d4S_kpJogPWV_qHsP6mP-110" value="10" style="ellipse;whiteSpace=wrap;html=1;aspect=fixed;strokeWidth=2;" parent="d4S_kpJogPWV_qHsP6mP-286" vertex="1">
          <mxGeometry x="75" y="210" width="50" height="50" as="geometry" />
        </mxCell>
        <mxCell id="d4S_kpJogPWV_qHsP6mP-201" style="edgeStyle=orthogonalEdgeStyle;rounded=0;orthogonalLoop=1;jettySize=auto;html=1;exitX=0.5;exitY=1;exitDx=0;exitDy=0;entryX=0;entryY=0.5;entryDx=0;entryDy=0;endArrow=none;endFill=0;fillColor=#f8cecc;strokeColor=#b85450;strokeWidth=2;" parent="d4S_kpJogPWV_qHsP6mP-286" source="d4S_kpJogPWV_qHsP6mP-107" target="d4S_kpJogPWV_qHsP6mP-110" edge="1">
          <mxGeometry as="geometry">
            <Array as="points">
              <mxPoint x="20" y="105" />
              <mxPoint x="20" y="235" />
            </Array>
          </mxGeometry>
        </mxCell>
        <mxCell id="d4S_kpJogPWV_qHsP6mP-239" style="edgeStyle=orthogonalEdgeStyle;rounded=0;orthogonalLoop=1;jettySize=auto;html=1;exitX=0.5;exitY=1;exitDx=0;exitDy=0;entryX=0.5;entryY=1;entryDx=0;entryDy=0;endArrow=none;endFill=0;strokeWidth=2;fillColor=#dae8fc;strokeColor=#6c8ebf;" parent="d4S_kpJogPWV_qHsP6mP-286" source="d4S_kpJogPWV_qHsP6mP-111" target="d4S_kpJogPWV_qHsP6mP-109" edge="1">
          <mxGeometry as="geometry">
            <Array as="points">
              <mxPoint x="230" y="300" />
              <mxPoint x="370" y="300" />
            </Array>
          </mxGeometry>
        </mxCell>
        <mxCell id="d4S_kpJogPWV_qHsP6mP-111" value="11" style="ellipse;whiteSpace=wrap;html=1;aspect=fixed;strokeWidth=2;" parent="d4S_kpJogPWV_qHsP6mP-286" vertex="1">
          <mxGeometry x="205" y="210" width="50" height="50" as="geometry" />
        </mxCell>
        <mxCell id="d4S_kpJogPWV_qHsP6mP-208" style="edgeStyle=orthogonalEdgeStyle;rounded=0;orthogonalLoop=1;jettySize=auto;html=1;exitX=0.5;exitY=1;exitDx=0;exitDy=0;entryX=0;entryY=0.5;entryDx=0;entryDy=0;endArrow=none;endFill=0;fillColor=#f8cecc;strokeColor=#b85450;strokeWidth=2;" parent="d4S_kpJogPWV_qHsP6mP-286" source="d4S_kpJogPWV_qHsP6mP-106" target="d4S_kpJogPWV_qHsP6mP-111" edge="1">
          <mxGeometry as="geometry">
            <Array as="points">
              <mxPoint x="170" y="105" />
              <mxPoint x="170" y="235" />
            </Array>
          </mxGeometry>
        </mxCell>
        <mxCell id="d4S_kpJogPWV_qHsP6mP-238" style="edgeStyle=orthogonalEdgeStyle;rounded=0;orthogonalLoop=1;jettySize=auto;html=1;exitX=0.5;exitY=1;exitDx=0;exitDy=0;entryX=0.5;entryY=1;entryDx=0;entryDy=0;endArrow=none;endFill=0;strokeWidth=2;fillColor=#dae8fc;strokeColor=#6c8ebf;" parent="d4S_kpJogPWV_qHsP6mP-286" source="d4S_kpJogPWV_qHsP6mP-110" target="d4S_kpJogPWV_qHsP6mP-111" edge="1">
          <mxGeometry as="geometry">
            <Array as="points">
              <mxPoint x="100" y="300" />
              <mxPoint x="230" y="300" />
            </Array>
          </mxGeometry>
        </mxCell>
        <mxCell id="d4S_kpJogPWV_qHsP6mP-247" style="edgeStyle=orthogonalEdgeStyle;rounded=0;orthogonalLoop=1;jettySize=auto;html=1;exitX=0.5;exitY=1;exitDx=0;exitDy=0;entryX=0.5;entryY=1;entryDx=0;entryDy=0;endArrow=none;endFill=0;strokeWidth=2;fillColor=#dae8fc;strokeColor=#6c8ebf;" parent="d4S_kpJogPWV_qHsP6mP-286" source="d4S_kpJogPWV_qHsP6mP-112" target="d4S_kpJogPWV_qHsP6mP-100" edge="1">
          <mxGeometry as="geometry">
            <Array as="points">
              <mxPoint x="500" y="430" />
              <mxPoint x="790" y="430" />
            </Array>
          </mxGeometry>
        </mxCell>
        <mxCell id="d4S_kpJogPWV_qHsP6mP-112" value="8" style="ellipse;whiteSpace=wrap;html=1;aspect=fixed;strokeWidth=2;" parent="d4S_kpJogPWV_qHsP6mP-286" vertex="1">
          <mxGeometry x="475" y="335" width="50" height="50" as="geometry" />
        </mxCell>
        <mxCell id="d4S_kpJogPWV_qHsP6mP-221" style="edgeStyle=orthogonalEdgeStyle;rounded=0;orthogonalLoop=1;jettySize=auto;html=1;exitX=0;exitY=0.5;exitDx=0;exitDy=0;entryX=0;entryY=0.5;entryDx=0;entryDy=0;endArrow=none;endFill=0;strokeWidth=2;fillColor=#f8cecc;strokeColor=#b85450;" parent="d4S_kpJogPWV_qHsP6mP-286" source="d4S_kpJogPWV_qHsP6mP-108" target="d4S_kpJogPWV_qHsP6mP-112" edge="1">
          <mxGeometry as="geometry">
            <Array as="points">
              <mxPoint x="440" y="235" />
              <mxPoint x="440" y="360" />
            </Array>
          </mxGeometry>
        </mxCell>
        <mxCell id="d4S_kpJogPWV_qHsP6mP-246" style="edgeStyle=orthogonalEdgeStyle;rounded=0;orthogonalLoop=1;jettySize=auto;html=1;exitX=0.5;exitY=1;exitDx=0;exitDy=0;entryX=0.5;entryY=1;entryDx=0;entryDy=0;endArrow=none;endFill=0;strokeWidth=2;fillColor=#dae8fc;strokeColor=#6c8ebf;" parent="d4S_kpJogPWV_qHsP6mP-286" source="d4S_kpJogPWV_qHsP6mP-113" target="d4S_kpJogPWV_qHsP6mP-112" edge="1">
          <mxGeometry as="geometry">
            <Array as="points">
              <mxPoint x="370" y="430" />
              <mxPoint x="500" y="430" />
            </Array>
          </mxGeometry>
        </mxCell>
        <mxCell id="d4S_kpJogPWV_qHsP6mP-113" value="7" style="ellipse;whiteSpace=wrap;html=1;aspect=fixed;strokeWidth=2;" parent="d4S_kpJogPWV_qHsP6mP-286" vertex="1">
          <mxGeometry x="345" y="335" width="50" height="50" as="geometry" />
        </mxCell>
        <mxCell id="d4S_kpJogPWV_qHsP6mP-216" style="edgeStyle=orthogonalEdgeStyle;rounded=0;orthogonalLoop=1;jettySize=auto;html=1;exitX=0;exitY=0.5;exitDx=0;exitDy=0;entryX=0;entryY=0.5;entryDx=0;entryDy=0;endArrow=none;endFill=0;strokeWidth=2;fillColor=#f8cecc;strokeColor=#b85450;" parent="d4S_kpJogPWV_qHsP6mP-286" source="d4S_kpJogPWV_qHsP6mP-109" target="d4S_kpJogPWV_qHsP6mP-113" edge="1">
          <mxGeometry as="geometry">
            <Array as="points">
              <mxPoint x="310" y="235" />
              <mxPoint x="310" y="360" />
            </Array>
          </mxGeometry>
        </mxCell>
        <mxCell id="d4S_kpJogPWV_qHsP6mP-245" style="edgeStyle=orthogonalEdgeStyle;rounded=0;orthogonalLoop=1;jettySize=auto;html=1;exitX=0.5;exitY=1;exitDx=0;exitDy=0;entryX=0.5;entryY=1;entryDx=0;entryDy=0;endArrow=none;endFill=0;strokeWidth=2;fillColor=#dae8fc;strokeColor=#6c8ebf;" parent="d4S_kpJogPWV_qHsP6mP-286" source="d4S_kpJogPWV_qHsP6mP-114" target="d4S_kpJogPWV_qHsP6mP-113" edge="1">
          <mxGeometry as="geometry">
            <Array as="points">
              <mxPoint x="230" y="430" />
              <mxPoint x="370" y="430" />
            </Array>
          </mxGeometry>
        </mxCell>
        <mxCell id="d4S_kpJogPWV_qHsP6mP-114" value="6" style="ellipse;whiteSpace=wrap;html=1;aspect=fixed;strokeWidth=2;" parent="d4S_kpJogPWV_qHsP6mP-286" vertex="1">
          <mxGeometry x="205" y="335" width="50" height="50" as="geometry" />
        </mxCell>
        <mxCell id="d4S_kpJogPWV_qHsP6mP-209" style="edgeStyle=orthogonalEdgeStyle;rounded=0;orthogonalLoop=1;jettySize=auto;html=1;exitX=0;exitY=0.5;exitDx=0;exitDy=0;entryX=0;entryY=0.5;entryDx=0;entryDy=0;endArrow=none;endFill=0;fillColor=#f8cecc;strokeColor=#b85450;strokeWidth=2;" parent="d4S_kpJogPWV_qHsP6mP-286" source="d4S_kpJogPWV_qHsP6mP-111" target="d4S_kpJogPWV_qHsP6mP-114" edge="1">
          <mxGeometry as="geometry">
            <Array as="points">
              <mxPoint x="170" y="235" />
              <mxPoint x="170" y="360" />
            </Array>
          </mxGeometry>
        </mxCell>
        <mxCell id="d4S_kpJogPWV_qHsP6mP-244" style="edgeStyle=orthogonalEdgeStyle;rounded=0;orthogonalLoop=1;jettySize=auto;html=1;exitX=0.5;exitY=1;exitDx=0;exitDy=0;entryX=0.5;entryY=1;entryDx=0;entryDy=0;endArrow=none;endFill=0;strokeWidth=2;fillColor=#dae8fc;strokeColor=#6c8ebf;" parent="d4S_kpJogPWV_qHsP6mP-286" source="d4S_kpJogPWV_qHsP6mP-115" target="d4S_kpJogPWV_qHsP6mP-114" edge="1">
          <mxGeometry as="geometry">
            <Array as="points">
              <mxPoint x="100" y="430" />
              <mxPoint x="230" y="430" />
            </Array>
          </mxGeometry>
        </mxCell>
        <mxCell id="d4S_kpJogPWV_qHsP6mP-115" value="5" style="ellipse;whiteSpace=wrap;html=1;aspect=fixed;strokeWidth=2;" parent="d4S_kpJogPWV_qHsP6mP-286" vertex="1">
          <mxGeometry x="75" y="335" width="50" height="50" as="geometry" />
        </mxCell>
        <mxCell id="d4S_kpJogPWV_qHsP6mP-202" style="edgeStyle=orthogonalEdgeStyle;rounded=0;orthogonalLoop=1;jettySize=auto;html=1;exitX=0;exitY=0.5;exitDx=0;exitDy=0;entryX=0;entryY=0.5;entryDx=0;entryDy=0;endArrow=none;endFill=0;fillColor=#f8cecc;strokeColor=#b85450;strokeWidth=2;" parent="d4S_kpJogPWV_qHsP6mP-286" source="d4S_kpJogPWV_qHsP6mP-110" target="d4S_kpJogPWV_qHsP6mP-115" edge="1">
          <mxGeometry as="geometry">
            <Array as="points">
              <mxPoint x="20" y="235" />
              <mxPoint x="20" y="360" />
            </Array>
          </mxGeometry>
        </mxCell>
        <mxCell id="d4S_kpJogPWV_qHsP6mP-268" style="edgeStyle=orthogonalEdgeStyle;rounded=0;orthogonalLoop=1;jettySize=auto;html=1;exitX=0.25;exitY=0;exitDx=0;exitDy=0;endArrow=none;endFill=0;strokeWidth=2;fillColor=#d5e8d4;strokeColor=#82b366;" parent="d4S_kpJogPWV_qHsP6mP-286" source="d4S_kpJogPWV_qHsP6mP-116" edge="1">
          <mxGeometry as="geometry">
            <mxPoint x="87.71428571428578" y="460" as="targetPoint" />
          </mxGeometry>
        </mxCell>
        <mxCell id="d4S_kpJogPWV_qHsP6mP-269" style="edgeStyle=orthogonalEdgeStyle;rounded=0;orthogonalLoop=1;jettySize=auto;html=1;exitX=0.75;exitY=0;exitDx=0;exitDy=0;endArrow=none;endFill=0;strokeWidth=2;fillColor=#e1d5e7;strokeColor=#9673a6;" parent="d4S_kpJogPWV_qHsP6mP-286" source="d4S_kpJogPWV_qHsP6mP-116" edge="1">
          <mxGeometry as="geometry">
            <mxPoint x="112.47619047619037" y="460" as="targetPoint" />
          </mxGeometry>
        </mxCell>
        <mxCell id="d4S_kpJogPWV_qHsP6mP-116" value="1" style="whiteSpace=wrap;html=1;aspect=fixed;strokeWidth=2;" parent="d4S_kpJogPWV_qHsP6mP-286" vertex="1">
          <mxGeometry x="75" y="500" width="50" height="50" as="geometry" />
        </mxCell>
        <mxCell id="d4S_kpJogPWV_qHsP6mP-204" style="edgeStyle=orthogonalEdgeStyle;rounded=0;orthogonalLoop=1;jettySize=auto;html=1;exitX=0;exitY=0.5;exitDx=0;exitDy=0;entryX=0.25;entryY=1;entryDx=0;entryDy=0;endArrow=none;endFill=0;fillColor=#f8cecc;strokeColor=#b85450;strokeWidth=2;" parent="d4S_kpJogPWV_qHsP6mP-286" source="d4S_kpJogPWV_qHsP6mP-115" target="d4S_kpJogPWV_qHsP6mP-116" edge="1">
          <mxGeometry as="geometry">
            <Array as="points">
              <mxPoint x="20" y="360" />
              <mxPoint x="20" y="570" />
              <mxPoint x="88" y="570" />
            </Array>
          </mxGeometry>
        </mxCell>
        <mxCell id="d4S_kpJogPWV_qHsP6mP-270" style="edgeStyle=orthogonalEdgeStyle;rounded=0;orthogonalLoop=1;jettySize=auto;html=1;exitX=0.25;exitY=0;exitDx=0;exitDy=0;endArrow=none;endFill=0;strokeWidth=2;fillColor=#d5e8d4;strokeColor=#82b366;" parent="d4S_kpJogPWV_qHsP6mP-286" source="d4S_kpJogPWV_qHsP6mP-117" edge="1">
          <mxGeometry as="geometry">
            <mxPoint x="217.71428571428578" y="460" as="targetPoint" />
          </mxGeometry>
        </mxCell>
        <mxCell id="d4S_kpJogPWV_qHsP6mP-271" style="edgeStyle=orthogonalEdgeStyle;rounded=0;orthogonalLoop=1;jettySize=auto;html=1;exitX=0.75;exitY=0;exitDx=0;exitDy=0;endArrow=none;endFill=0;strokeWidth=2;fillColor=#e1d5e7;strokeColor=#9673a6;" parent="d4S_kpJogPWV_qHsP6mP-286" source="d4S_kpJogPWV_qHsP6mP-117" edge="1">
          <mxGeometry as="geometry">
            <mxPoint x="242.47619047619037" y="460" as="targetPoint" />
          </mxGeometry>
        </mxCell>
        <mxCell id="d4S_kpJogPWV_qHsP6mP-117" value="2" style="whiteSpace=wrap;html=1;aspect=fixed;strokeWidth=2;" parent="d4S_kpJogPWV_qHsP6mP-286" vertex="1">
          <mxGeometry x="205" y="500" width="50" height="50" as="geometry" />
        </mxCell>
        <mxCell id="d4S_kpJogPWV_qHsP6mP-212" style="edgeStyle=orthogonalEdgeStyle;rounded=0;orthogonalLoop=1;jettySize=auto;html=1;exitX=0;exitY=0.5;exitDx=0;exitDy=0;entryX=0.25;entryY=1;entryDx=0;entryDy=0;endArrow=none;endFill=0;fillColor=#f8cecc;strokeColor=#b85450;strokeWidth=2;" parent="d4S_kpJogPWV_qHsP6mP-286" source="d4S_kpJogPWV_qHsP6mP-114" target="d4S_kpJogPWV_qHsP6mP-117" edge="1">
          <mxGeometry as="geometry">
            <Array as="points">
              <mxPoint x="170" y="360" />
              <mxPoint x="170" y="570" />
              <mxPoint x="218" y="570" />
            </Array>
          </mxGeometry>
        </mxCell>
        <mxCell id="d4S_kpJogPWV_qHsP6mP-252" style="edgeStyle=orthogonalEdgeStyle;rounded=0;orthogonalLoop=1;jettySize=auto;html=1;exitX=0.75;exitY=1;exitDx=0;exitDy=0;entryX=0.75;entryY=1;entryDx=0;entryDy=0;endArrow=none;endFill=0;strokeWidth=2;fillColor=#dae8fc;strokeColor=#6c8ebf;" parent="d4S_kpJogPWV_qHsP6mP-286" source="d4S_kpJogPWV_qHsP6mP-116" target="d4S_kpJogPWV_qHsP6mP-117" edge="1">
          <mxGeometry as="geometry">
            <Array as="points">
              <mxPoint x="113" y="590" />
              <mxPoint x="243" y="590" />
            </Array>
          </mxGeometry>
        </mxCell>
        <mxCell id="d4S_kpJogPWV_qHsP6mP-263" style="edgeStyle=orthogonalEdgeStyle;rounded=0;orthogonalLoop=1;jettySize=auto;html=1;exitX=0.5;exitY=0;exitDx=0;exitDy=0;entryX=0.5;entryY=0;entryDx=0;entryDy=0;endArrow=none;endFill=0;strokeWidth=2;" parent="d4S_kpJogPWV_qHsP6mP-286" source="d4S_kpJogPWV_qHsP6mP-116" target="d4S_kpJogPWV_qHsP6mP-117" edge="1">
          <mxGeometry as="geometry" />
        </mxCell>
        <mxCell id="d4S_kpJogPWV_qHsP6mP-272" style="edgeStyle=orthogonalEdgeStyle;rounded=0;orthogonalLoop=1;jettySize=auto;html=1;exitX=0.25;exitY=0;exitDx=0;exitDy=0;endArrow=none;endFill=0;strokeWidth=2;fillColor=#d5e8d4;strokeColor=#82b366;" parent="d4S_kpJogPWV_qHsP6mP-286" source="d4S_kpJogPWV_qHsP6mP-118" edge="1">
          <mxGeometry as="geometry">
            <mxPoint x="357.7142857142858" y="460" as="targetPoint" />
          </mxGeometry>
        </mxCell>
        <mxCell id="d4S_kpJogPWV_qHsP6mP-273" style="edgeStyle=orthogonalEdgeStyle;rounded=0;orthogonalLoop=1;jettySize=auto;html=1;exitX=0.75;exitY=0;exitDx=0;exitDy=0;endArrow=none;endFill=0;strokeWidth=2;fillColor=#e1d5e7;strokeColor=#9673a6;" parent="d4S_kpJogPWV_qHsP6mP-286" source="d4S_kpJogPWV_qHsP6mP-118" edge="1">
          <mxGeometry as="geometry">
            <mxPoint x="382.47619047619037" y="460" as="targetPoint" />
          </mxGeometry>
        </mxCell>
        <mxCell id="d4S_kpJogPWV_qHsP6mP-118" value="3" style="whiteSpace=wrap;html=1;aspect=fixed;strokeWidth=2;" parent="d4S_kpJogPWV_qHsP6mP-286" vertex="1">
          <mxGeometry x="345" y="500" width="50" height="50" as="geometry" />
        </mxCell>
        <mxCell id="d4S_kpJogPWV_qHsP6mP-217" style="edgeStyle=orthogonalEdgeStyle;rounded=0;orthogonalLoop=1;jettySize=auto;html=1;exitX=0;exitY=0.5;exitDx=0;exitDy=0;entryX=0.25;entryY=1;entryDx=0;entryDy=0;endArrow=none;endFill=0;strokeWidth=2;fillColor=#f8cecc;strokeColor=#b85450;" parent="d4S_kpJogPWV_qHsP6mP-286" source="d4S_kpJogPWV_qHsP6mP-113" target="d4S_kpJogPWV_qHsP6mP-118" edge="1">
          <mxGeometry as="geometry">
            <Array as="points">
              <mxPoint x="310" y="360" />
              <mxPoint x="310" y="570" />
              <mxPoint x="358" y="570" />
            </Array>
          </mxGeometry>
        </mxCell>
        <mxCell id="d4S_kpJogPWV_qHsP6mP-253" style="edgeStyle=orthogonalEdgeStyle;rounded=0;orthogonalLoop=1;jettySize=auto;html=1;exitX=0.75;exitY=1;exitDx=0;exitDy=0;entryX=0.75;entryY=1;entryDx=0;entryDy=0;endArrow=none;endFill=0;strokeWidth=2;fillColor=#dae8fc;strokeColor=#6c8ebf;" parent="d4S_kpJogPWV_qHsP6mP-286" source="d4S_kpJogPWV_qHsP6mP-117" target="d4S_kpJogPWV_qHsP6mP-118" edge="1">
          <mxGeometry as="geometry">
            <Array as="points">
              <mxPoint x="243" y="590" />
              <mxPoint x="383" y="590" />
            </Array>
          </mxGeometry>
        </mxCell>
        <mxCell id="d4S_kpJogPWV_qHsP6mP-264" style="edgeStyle=orthogonalEdgeStyle;rounded=0;orthogonalLoop=1;jettySize=auto;html=1;exitX=0.5;exitY=0;exitDx=0;exitDy=0;entryX=0.5;entryY=0;entryDx=0;entryDy=0;endArrow=none;endFill=0;strokeWidth=2;" parent="d4S_kpJogPWV_qHsP6mP-286" source="d4S_kpJogPWV_qHsP6mP-117" target="d4S_kpJogPWV_qHsP6mP-118" edge="1">
          <mxGeometry as="geometry" />
        </mxCell>
        <mxCell id="d4S_kpJogPWV_qHsP6mP-274" style="edgeStyle=orthogonalEdgeStyle;rounded=0;orthogonalLoop=1;jettySize=auto;html=1;exitX=0.25;exitY=0;exitDx=0;exitDy=0;endArrow=none;endFill=0;strokeWidth=2;fillColor=#d5e8d4;strokeColor=#82b366;" parent="d4S_kpJogPWV_qHsP6mP-286" source="d4S_kpJogPWV_qHsP6mP-119" edge="1">
          <mxGeometry as="geometry">
            <mxPoint x="487.7142857142858" y="460" as="targetPoint" />
          </mxGeometry>
        </mxCell>
        <mxCell id="d4S_kpJogPWV_qHsP6mP-275" style="edgeStyle=orthogonalEdgeStyle;rounded=0;orthogonalLoop=1;jettySize=auto;html=1;exitX=0.75;exitY=0;exitDx=0;exitDy=0;endArrow=none;endFill=0;strokeWidth=2;fillColor=#e1d5e7;strokeColor=#9673a6;" parent="d4S_kpJogPWV_qHsP6mP-286" source="d4S_kpJogPWV_qHsP6mP-119" edge="1">
          <mxGeometry as="geometry">
            <mxPoint x="512.4761904761904" y="460" as="targetPoint" />
          </mxGeometry>
        </mxCell>
        <mxCell id="d4S_kpJogPWV_qHsP6mP-119" value="4" style="whiteSpace=wrap;html=1;aspect=fixed;strokeWidth=2;" parent="d4S_kpJogPWV_qHsP6mP-286" vertex="1">
          <mxGeometry x="475" y="500" width="50" height="50" as="geometry" />
        </mxCell>
        <mxCell id="d4S_kpJogPWV_qHsP6mP-222" style="edgeStyle=orthogonalEdgeStyle;rounded=0;orthogonalLoop=1;jettySize=auto;html=1;exitX=0;exitY=0.5;exitDx=0;exitDy=0;entryX=0.25;entryY=1;entryDx=0;entryDy=0;endArrow=none;endFill=0;strokeWidth=2;fillColor=#f8cecc;strokeColor=#b85450;" parent="d4S_kpJogPWV_qHsP6mP-286" source="d4S_kpJogPWV_qHsP6mP-112" target="d4S_kpJogPWV_qHsP6mP-119" edge="1">
          <mxGeometry as="geometry">
            <Array as="points">
              <mxPoint x="440" y="360" />
              <mxPoint x="440" y="570" />
              <mxPoint x="488" y="570" />
            </Array>
          </mxGeometry>
        </mxCell>
        <mxCell id="d4S_kpJogPWV_qHsP6mP-254" style="edgeStyle=orthogonalEdgeStyle;rounded=0;orthogonalLoop=1;jettySize=auto;html=1;exitX=0.75;exitY=1;exitDx=0;exitDy=0;entryX=0.75;entryY=1;entryDx=0;entryDy=0;endArrow=none;endFill=0;strokeWidth=2;fillColor=#dae8fc;strokeColor=#6c8ebf;" parent="d4S_kpJogPWV_qHsP6mP-286" source="d4S_kpJogPWV_qHsP6mP-118" target="d4S_kpJogPWV_qHsP6mP-119" edge="1">
          <mxGeometry as="geometry">
            <Array as="points">
              <mxPoint x="383" y="590" />
              <mxPoint x="513" y="590" />
            </Array>
          </mxGeometry>
        </mxCell>
        <mxCell id="d4S_kpJogPWV_qHsP6mP-265" style="edgeStyle=orthogonalEdgeStyle;rounded=0;orthogonalLoop=1;jettySize=auto;html=1;exitX=0.5;exitY=0;exitDx=0;exitDy=0;entryX=0.5;entryY=0;entryDx=0;entryDy=0;endArrow=none;endFill=0;strokeWidth=2;" parent="d4S_kpJogPWV_qHsP6mP-286" source="d4S_kpJogPWV_qHsP6mP-118" target="d4S_kpJogPWV_qHsP6mP-119" edge="1">
          <mxGeometry as="geometry" />
        </mxCell>
        <mxCell id="d4S_kpJogPWV_qHsP6mP-199" value="&lt;font style=&quot;font-size: 24px&quot;&gt;8&lt;/font&gt;" style="text;html=1;align=center;verticalAlign=middle;resizable=0;points=[];autosize=1;" parent="d4S_kpJogPWV_qHsP6mP-286" vertex="1">
          <mxGeometry x="875" width="30" height="20" as="geometry" />
        </mxCell>
        <mxCell id="d4S_kpJogPWV_qHsP6mP-226" style="edgeStyle=orthogonalEdgeStyle;rounded=0;orthogonalLoop=1;jettySize=auto;html=1;endArrow=none;endFill=0;strokeWidth=2;fillColor=#dae8fc;strokeColor=#6c8ebf;" parent="d4S_kpJogPWV_qHsP6mP-286" target="d4S_kpJogPWV_qHsP6mP-199" edge="1">
          <mxGeometry as="geometry">
            <mxPoint x="870" y="10" as="targetPoint" />
            <Array as="points">
              <mxPoint x="680" y="118" />
              <mxPoint x="680" y="10" />
            </Array>
            <mxPoint x="665" y="120" as="sourcePoint" />
          </mxGeometry>
        </mxCell>
        <mxCell id="d4S_kpJogPWV_qHsP6mP-207" value="&lt;font style=&quot;font-size: 24px&quot;&gt;A3 / 21&lt;/font&gt;" style="text;html=1;align=center;verticalAlign=middle;resizable=0;points=[];autosize=1;" parent="d4S_kpJogPWV_qHsP6mP-286" vertex="1">
          <mxGeometry x="-30" y="630" width="100" height="40" as="geometry" />
        </mxCell>
        <mxCell id="d4S_kpJogPWV_qHsP6mP-205" style="edgeStyle=orthogonalEdgeStyle;rounded=0;orthogonalLoop=1;jettySize=auto;html=1;exitX=0.25;exitY=1;exitDx=0;exitDy=0;endArrow=none;endFill=0;fillColor=#f8cecc;strokeColor=#b85450;strokeWidth=2;" parent="d4S_kpJogPWV_qHsP6mP-286" source="d4S_kpJogPWV_qHsP6mP-116" target="d4S_kpJogPWV_qHsP6mP-207" edge="1">
          <mxGeometry as="geometry">
            <mxPoint x="20" y="640" as="targetPoint" />
            <Array as="points">
              <mxPoint x="88" y="570" />
              <mxPoint x="20" y="570" />
            </Array>
          </mxGeometry>
        </mxCell>
        <mxCell id="d4S_kpJogPWV_qHsP6mP-214" value="&lt;font style=&quot;font-size: 24px&quot;&gt;A2 / 20&lt;/font&gt;" style="text;html=1;align=center;verticalAlign=middle;resizable=0;points=[];autosize=1;" parent="d4S_kpJogPWV_qHsP6mP-286" vertex="1">
          <mxGeometry x="120" y="630" width="100" height="40" as="geometry" />
        </mxCell>
        <mxCell id="d4S_kpJogPWV_qHsP6mP-213" style="edgeStyle=orthogonalEdgeStyle;rounded=0;orthogonalLoop=1;jettySize=auto;html=1;exitX=0.25;exitY=1;exitDx=0;exitDy=0;endArrow=none;endFill=0;fillColor=#f8cecc;strokeColor=#b85450;strokeWidth=2;" parent="d4S_kpJogPWV_qHsP6mP-286" source="d4S_kpJogPWV_qHsP6mP-117" target="d4S_kpJogPWV_qHsP6mP-214" edge="1">
          <mxGeometry as="geometry">
            <mxPoint x="170" y="640" as="targetPoint" />
            <Array as="points">
              <mxPoint x="218" y="570" />
              <mxPoint x="170" y="570" />
            </Array>
          </mxGeometry>
        </mxCell>
        <mxCell id="d4S_kpJogPWV_qHsP6mP-219" value="&lt;font style=&quot;font-size: 24px&quot;&gt;A1 / 19&lt;/font&gt;" style="text;html=1;align=center;verticalAlign=middle;resizable=0;points=[];autosize=1;" parent="d4S_kpJogPWV_qHsP6mP-286" vertex="1">
          <mxGeometry x="260" y="630" width="100" height="40" as="geometry" />
        </mxCell>
        <mxCell id="d4S_kpJogPWV_qHsP6mP-218" style="edgeStyle=orthogonalEdgeStyle;rounded=0;orthogonalLoop=1;jettySize=auto;html=1;exitX=0.25;exitY=1;exitDx=0;exitDy=0;endArrow=none;endFill=0;strokeWidth=2;fillColor=#f8cecc;strokeColor=#b85450;" parent="d4S_kpJogPWV_qHsP6mP-286" source="d4S_kpJogPWV_qHsP6mP-118" target="d4S_kpJogPWV_qHsP6mP-219" edge="1">
          <mxGeometry as="geometry">
            <mxPoint x="310" y="640" as="targetPoint" />
            <Array as="points">
              <mxPoint x="358" y="570" />
              <mxPoint x="310" y="570" />
            </Array>
          </mxGeometry>
        </mxCell>
        <mxCell id="d4S_kpJogPWV_qHsP6mP-224" value="&lt;font style=&quot;font-size: 24px&quot;&gt;A0 / 18&lt;/font&gt;" style="text;html=1;align=center;verticalAlign=middle;resizable=0;points=[];autosize=1;" parent="d4S_kpJogPWV_qHsP6mP-286" vertex="1">
          <mxGeometry x="390" y="630" width="100" height="40" as="geometry" />
        </mxCell>
        <mxCell id="d4S_kpJogPWV_qHsP6mP-223" style="edgeStyle=orthogonalEdgeStyle;rounded=0;orthogonalLoop=1;jettySize=auto;html=1;exitX=0.25;exitY=1;exitDx=0;exitDy=0;endArrow=none;endFill=0;strokeWidth=2;fillColor=#f8cecc;strokeColor=#b85450;" parent="d4S_kpJogPWV_qHsP6mP-286" source="d4S_kpJogPWV_qHsP6mP-119" target="d4S_kpJogPWV_qHsP6mP-224" edge="1">
          <mxGeometry as="geometry">
            <mxPoint x="440" y="640" as="targetPoint" />
            <Array as="points">
              <mxPoint x="488" y="570" />
              <mxPoint x="440" y="570" />
            </Array>
          </mxGeometry>
        </mxCell>
        <mxCell id="d4S_kpJogPWV_qHsP6mP-231" value="&lt;font style=&quot;font-size: 24px&quot;&gt;15&lt;/font&gt;" style="text;html=1;align=center;verticalAlign=middle;resizable=0;points=[];autosize=1;" parent="d4S_kpJogPWV_qHsP6mP-286" vertex="1">
          <mxGeometry x="555" y="630" width="50" height="40" as="geometry" />
        </mxCell>
        <mxCell id="d4S_kpJogPWV_qHsP6mP-230" style="edgeStyle=orthogonalEdgeStyle;rounded=0;orthogonalLoop=1;jettySize=auto;html=1;endArrow=none;endFill=0;fillColor=#f8cecc;strokeColor=#b85450;strokeWidth=2;" parent="d4S_kpJogPWV_qHsP6mP-286" target="d4S_kpJogPWV_qHsP6mP-231" edge="1">
          <mxGeometry as="geometry">
            <mxPoint x="580" y="640" as="targetPoint" />
            <mxPoint x="580" y="360" as="sourcePoint" />
          </mxGeometry>
        </mxCell>
        <mxCell id="d4S_kpJogPWV_qHsP6mP-237" value="&lt;font style=&quot;font-size: 24px&quot;&gt;9&lt;/font&gt;" style="text;html=1;align=center;verticalAlign=middle;resizable=0;points=[];autosize=1;" parent="d4S_kpJogPWV_qHsP6mP-286" vertex="1">
          <mxGeometry x="910" y="150" width="30" height="20" as="geometry" />
        </mxCell>
        <mxCell id="d4S_kpJogPWV_qHsP6mP-243" value="&lt;font style=&quot;font-size: 24px&quot;&gt;10&lt;/font&gt;" style="text;html=1;align=center;verticalAlign=middle;resizable=0;points=[];autosize=1;" parent="d4S_kpJogPWV_qHsP6mP-286" vertex="1">
          <mxGeometry x="875" y="290" width="40" height="20" as="geometry" />
        </mxCell>
        <mxCell id="d4S_kpJogPWV_qHsP6mP-242" style="edgeStyle=orthogonalEdgeStyle;rounded=0;orthogonalLoop=1;jettySize=auto;html=1;exitX=0.386;exitY=0.017;exitDx=0;exitDy=0;endArrow=none;endFill=0;strokeWidth=2;fillColor=#dae8fc;strokeColor=#6c8ebf;exitPerimeter=0;" parent="d4S_kpJogPWV_qHsP6mP-286" source="d4S_kpJogPWV_qHsP6mP-103" target="d4S_kpJogPWV_qHsP6mP-243" edge="1">
          <mxGeometry as="geometry">
            <mxPoint x="870" y="300" as="targetPoint" />
            <Array as="points">
              <mxPoint x="840" y="118" />
              <mxPoint x="840" y="300" />
            </Array>
          </mxGeometry>
        </mxCell>
        <mxCell id="d4S_kpJogPWV_qHsP6mP-249" value="&lt;font style=&quot;font-size: 24px&quot;&gt;16&lt;/font&gt;" style="text;html=1;align=center;verticalAlign=middle;resizable=0;points=[];autosize=1;" parent="d4S_kpJogPWV_qHsP6mP-286" vertex="1">
          <mxGeometry x="870" y="410" width="50" height="40" as="geometry" />
        </mxCell>
        <mxCell id="d4S_kpJogPWV_qHsP6mP-248" style="edgeStyle=orthogonalEdgeStyle;rounded=0;orthogonalLoop=1;jettySize=auto;html=1;exitX=0.5;exitY=1;exitDx=0;exitDy=0;endArrow=none;endFill=0;strokeWidth=2;fillColor=#dae8fc;strokeColor=#6c8ebf;" parent="d4S_kpJogPWV_qHsP6mP-286" source="d4S_kpJogPWV_qHsP6mP-100" target="d4S_kpJogPWV_qHsP6mP-249" edge="1">
          <mxGeometry as="geometry">
            <mxPoint x="870" y="430" as="targetPoint" />
            <Array as="points">
              <mxPoint x="790" y="430" />
            </Array>
          </mxGeometry>
        </mxCell>
        <mxCell id="d4S_kpJogPWV_qHsP6mP-256" value="&lt;font style=&quot;font-size: 24px&quot;&gt;14&lt;/font&gt;" style="text;html=1;align=center;verticalAlign=middle;resizable=0;points=[];autosize=1;" parent="d4S_kpJogPWV_qHsP6mP-286" vertex="1">
          <mxGeometry x="615" y="570" width="50" height="40" as="geometry" />
        </mxCell>
        <mxCell id="d4S_kpJogPWV_qHsP6mP-255" style="edgeStyle=orthogonalEdgeStyle;rounded=0;orthogonalLoop=1;jettySize=auto;html=1;exitX=0.75;exitY=1;exitDx=0;exitDy=0;endArrow=none;endFill=0;strokeWidth=2;fillColor=#dae8fc;strokeColor=#6c8ebf;" parent="d4S_kpJogPWV_qHsP6mP-286" source="d4S_kpJogPWV_qHsP6mP-119" target="d4S_kpJogPWV_qHsP6mP-256" edge="1">
          <mxGeometry as="geometry">
            <mxPoint x="630" y="590" as="targetPoint" />
            <Array as="points">
              <mxPoint x="513" y="590" />
            </Array>
          </mxGeometry>
        </mxCell>
        <mxCell id="d4S_kpJogPWV_qHsP6mP-260" value="&lt;font style=&quot;font-size: 24px&quot;&gt;GND&lt;/font&gt;" style="text;html=1;align=center;verticalAlign=middle;resizable=0;points=[];autosize=1;" parent="d4S_kpJogPWV_qHsP6mP-286" vertex="1">
          <mxGeometry x="940" y="310" width="70" height="20" as="geometry" />
        </mxCell>
        <mxCell id="d4S_kpJogPWV_qHsP6mP-259" style="edgeStyle=orthogonalEdgeStyle;rounded=0;orthogonalLoop=1;jettySize=auto;html=1;exitX=0.5;exitY=0;exitDx=0;exitDy=0;endArrow=none;endFill=0;strokeWidth=2;" parent="d4S_kpJogPWV_qHsP6mP-286" source="d4S_kpJogPWV_qHsP6mP-100" target="d4S_kpJogPWV_qHsP6mP-260" edge="1">
          <mxGeometry as="geometry">
            <mxPoint x="960" y="320" as="targetPoint" />
            <Array as="points">
              <mxPoint x="790" y="320" />
            </Array>
          </mxGeometry>
        </mxCell>
        <mxCell id="d4S_kpJogPWV_qHsP6mP-262" value="&lt;font style=&quot;font-size: 24px&quot;&gt;VCC&lt;/font&gt;" style="text;html=1;align=center;verticalAlign=middle;resizable=0;points=[];autosize=1;" parent="d4S_kpJogPWV_qHsP6mP-286" vertex="1">
          <mxGeometry x="940" y="370" width="70" height="20" as="geometry" />
        </mxCell>
        <mxCell id="d4S_kpJogPWV_qHsP6mP-261" style="edgeStyle=orthogonalEdgeStyle;rounded=0;orthogonalLoop=1;jettySize=auto;html=1;exitX=1;exitY=1;exitDx=0;exitDy=0;endArrow=none;endFill=0;strokeWidth=2;fillColor=#ffe6cc;strokeColor=#d79b00;" parent="d4S_kpJogPWV_qHsP6mP-286" source="d4S_kpJogPWV_qHsP6mP-100" target="d4S_kpJogPWV_qHsP6mP-262" edge="1">
          <mxGeometry as="geometry">
            <mxPoint x="960" y="381.3333333333335" as="targetPoint" />
            <Array as="points">
              <mxPoint x="811" y="380" />
            </Array>
          </mxGeometry>
        </mxCell>
        <mxCell id="d4S_kpJogPWV_qHsP6mP-267" value="&lt;font style=&quot;font-size: 24px&quot;&gt;GND&lt;/font&gt;" style="text;html=1;align=center;verticalAlign=middle;resizable=0;points=[];autosize=1;" parent="d4S_kpJogPWV_qHsP6mP-286" vertex="1">
          <mxGeometry x="620" y="470" width="70" height="20" as="geometry" />
        </mxCell>
        <mxCell id="d4S_kpJogPWV_qHsP6mP-266" style="edgeStyle=orthogonalEdgeStyle;rounded=0;orthogonalLoop=1;jettySize=auto;html=1;exitX=0.5;exitY=0;exitDx=0;exitDy=0;endArrow=none;endFill=0;strokeWidth=2;" parent="d4S_kpJogPWV_qHsP6mP-286" source="d4S_kpJogPWV_qHsP6mP-119" target="d4S_kpJogPWV_qHsP6mP-267" edge="1">
          <mxGeometry as="geometry">
            <mxPoint x="630" y="480" as="targetPoint" />
            <Array as="points">
              <mxPoint x="500" y="480" />
            </Array>
          </mxGeometry>
        </mxCell>
        <mxCell id="d4S_kpJogPWV_qHsP6mP-276" value="&lt;font style=&quot;font-size: 24px&quot;&gt;TX&lt;/font&gt;" style="text;html=1;align=center;verticalAlign=middle;resizable=0;points=[];autosize=1;" parent="d4S_kpJogPWV_qHsP6mP-286" vertex="1">
          <mxGeometry x="50" y="440" width="50" height="20" as="geometry" />
        </mxCell>
        <mxCell id="d4S_kpJogPWV_qHsP6mP-277" value="&lt;font style=&quot;font-size: 24px&quot;&gt;RX&lt;/font&gt;" style="text;html=1;align=center;verticalAlign=middle;resizable=0;points=[];autosize=1;" parent="d4S_kpJogPWV_qHsP6mP-286" vertex="1">
          <mxGeometry x="100" y="440" width="50" height="20" as="geometry" />
        </mxCell>
        <mxCell id="d4S_kpJogPWV_qHsP6mP-278" value="&lt;font style=&quot;font-size: 24px&quot;&gt;2&lt;/font&gt;" style="text;html=1;align=center;verticalAlign=middle;resizable=0;points=[];autosize=1;" parent="d4S_kpJogPWV_qHsP6mP-286" vertex="1">
          <mxGeometry x="200" y="440" width="30" height="20" as="geometry" />
        </mxCell>
        <mxCell id="d4S_kpJogPWV_qHsP6mP-279" value="&lt;font style=&quot;font-size: 24px&quot;&gt;3&lt;/font&gt;" style="text;html=1;align=center;verticalAlign=middle;resizable=0;points=[];autosize=1;" parent="d4S_kpJogPWV_qHsP6mP-286" vertex="1">
          <mxGeometry x="230" y="440" width="30" height="20" as="geometry" />
        </mxCell>
        <mxCell id="d4S_kpJogPWV_qHsP6mP-280" value="&lt;font style=&quot;font-size: 24px&quot;&gt;4&lt;/font&gt;" style="text;html=1;align=center;verticalAlign=middle;resizable=0;points=[];autosize=1;" parent="d4S_kpJogPWV_qHsP6mP-286" vertex="1">
          <mxGeometry x="340" y="440" width="30" height="20" as="geometry" />
        </mxCell>
        <mxCell id="d4S_kpJogPWV_qHsP6mP-281" value="&lt;font style=&quot;font-size: 24px&quot;&gt;5&lt;/font&gt;" style="text;html=1;align=center;verticalAlign=middle;resizable=0;points=[];autosize=1;" parent="d4S_kpJogPWV_qHsP6mP-286" vertex="1">
          <mxGeometry x="370" y="440" width="30" height="20" as="geometry" />
        </mxCell>
        <mxCell id="d4S_kpJogPWV_qHsP6mP-282" value="&lt;font style=&quot;font-size: 24px&quot;&gt;6&lt;/font&gt;" style="text;html=1;align=center;verticalAlign=middle;resizable=0;points=[];autosize=1;" parent="d4S_kpJogPWV_qHsP6mP-286" vertex="1">
          <mxGeometry x="470" y="440" width="30" height="20" as="geometry" />
        </mxCell>
        <mxCell id="d4S_kpJogPWV_qHsP6mP-283" value="&lt;font style=&quot;font-size: 24px&quot;&gt;7&lt;/font&gt;" style="text;html=1;align=center;verticalAlign=middle;resizable=0;points=[];autosize=1;" parent="d4S_kpJogPWV_qHsP6mP-286" vertex="1">
          <mxGeometry x="500" y="440" width="30" height="20" as="geometry" />
        </mxCell>
        <mxCell id="w3lkT9xzynE0XjIDihke-2" value="1" style="text;html=1;align=center;verticalAlign=middle;resizable=0;points=[];autosize=1;strokeColor=none;fillColor=none;" parent="d4S_kpJogPWV_qHsP6mP-286" vertex="1">
          <mxGeometry x="815" y="355" width="30" height="30" as="geometry" />
        </mxCell>
        <mxCell id="w3lkT9xzynE0XjIDihke-4" value="2" style="text;html=1;align=center;verticalAlign=middle;resizable=0;points=[];autosize=1;strokeColor=none;fillColor=none;" parent="d4S_kpJogPWV_qHsP6mP-286" vertex="1">
          <mxGeometry x="775" y="385" width="30" height="30" as="geometry" />
        </mxCell>
        <mxCell id="w3lkT9xzynE0XjIDihke-5" value="2" style="text;html=1;align=center;verticalAlign=middle;resizable=0;points=[];autosize=1;strokeColor=none;fillColor=none;" parent="d4S_kpJogPWV_qHsP6mP-286" vertex="1">
          <mxGeometry x="730" y="340" width="30" height="30" as="geometry" />
        </mxCell>
        <mxCell id="w3lkT9xzynE0XjIDihke-3" value="3" style="text;html=1;align=center;verticalAlign=middle;resizable=0;points=[];autosize=1;strokeColor=none;fillColor=none;" parent="d4S_kpJogPWV_qHsP6mP-286" vertex="1">
          <mxGeometry x="760" y="300" width="30" height="30" as="geometry" />
        </mxCell>
      </root>
    </mxGraphModel>
  </diagram>
</mxfile>
